<?xml version="1.0" encoding="utf-8"?>
<svg xmlns="http://www.w3.org/2000/svg" width="120" height="29.539" viewBox="0 0 120 29.539">
  <g id="Grupo_160" data-name="Grupo 160" transform="translate(0 0)">
    <g id="Grupo_157" data-name="Grupo 157" transform="translate(39.538 4.008)">
      <path id="Caminho_101" data-name="Caminho 101" d="M736.739,206.717c3.109,0,4.859,1.907,4.859,5.355a11.011,11.011,0,0,1-.183,2.064h-6.766c.183,1.7,1.019,2.456,2.612,2.456a11.01,11.01,0,0,0,3.318-.679l.862,2.508a11.184,11.184,0,0,1-4.284.888c-3.684,0-5.669-2.038-5.669-6.244C731.488,208.99,733.343,206.717,736.739,206.717Zm1.8,5.016c-.052-1.515-.627-2.3-1.881-2.3-1.332,0-1.881.888-2.011,2.3Z" transform="translate(-707.401 -202.217)" fill="#fff"/>
      <path id="Caminho_102" data-name="Caminho 102" d="M768.371,206.978h2.195l.34,1.358a4.464,4.464,0,0,1,3.448-1.62,8.614,8.614,0,0,1,1.411.13l-.209,2.822a8.689,8.689,0,0,0-1.306-.1,3.679,3.679,0,0,0-2.8.993v8.49h-3.083Z" transform="translate(-731.692 -202.217)" fill="#fff"/>
      <path id="Caminho_103" data-name="Caminho 103" d="M792.476,204.449c0-4.258,1.855-6.4,5.2-6.4a12.247,12.247,0,0,1,2.064.209v-4.7h3.083v16.824H800.6l-.313-.81a4.615,4.615,0,0,1-3.083,1.071C794.278,210.64,792.476,208.655,792.476,204.449Zm7.263,2.978V200.87a9.13,9.13,0,0,0-1.672-.183c-1.855,0-2.456,1.045-2.456,3.71,0,2.586.549,3.579,2.116,3.579A4.033,4.033,0,0,0,799.738,207.427Z" transform="translate(-747.568 -193.548)" fill="#fff"/>
      <path id="Caminho_104" data-name="Caminho 104" d="M835.145,206.717c3.109,0,4.859,1.907,4.859,5.355a11.016,11.016,0,0,1-.183,2.064h-6.766c.183,1.7,1.019,2.456,2.612,2.456a11.01,11.01,0,0,0,3.318-.679l.862,2.508a11.186,11.186,0,0,1-4.284.888c-3.684,0-5.669-2.038-5.669-6.244C829.894,208.99,831.749,206.717,835.145,206.717Zm1.8,5.016c-.052-1.515-.627-2.3-1.881-2.3-1.332,0-1.881.888-2.011,2.3Z" transform="translate(-772.212 -202.217)" fill="#fff"/>
      <path id="Caminho_105" data-name="Caminho 105" d="M863.333,207.482h3.083c.732,3.056,1.672,6.583,2.586,9.3h.1c.914-2.717,1.855-6.244,2.56-9.3h3.03a95.264,95.264,0,0,1-3.657,12.07h-4.049A95.385,95.385,0,0,1,863.333,207.482Z" transform="translate(-794.235 -202.721)" fill="#fff"/>
      <path id="Caminho_106" data-name="Caminho 106" d="M704.96,207.471l-2.543,9.66a5.669,5.669,0,0,1-1.225.1c-1.28,0-1.75-.679-1.75-1.854v-7.9h-3.083v8.293c0,2.352,1.176,4.18,4.023,4.18a5.748,5.748,0,0,0,1.336-.155l-1.238,4.7h3.083l4.48-17.018Z" transform="translate(-684.264 -202.713)" fill="#fff"/>
      <path id="Caminho_107" data-name="Caminho 107" d="M660.933,193.535h3.083v5.277a6.226,6.226,0,0,1,3.031-.783c2.848,0,4.023,1.828,4.023,4.18v8.151h-3.083V202.6c0-1.176-.47-1.855-1.75-1.855a5.249,5.249,0,0,0-2.22.575v9.039h-3.083Z" transform="translate(-660.933 -193.535)" fill="#fff"/>
    </g>
    <g id="Grupo_159" data-name="Grupo 159" transform="translate(0 0)">
      <path id="Caminho_108" data-name="Caminho 108" d="M565.934,211.333a1.271,1.271,0,0,1-1.193-1.308c0-.715.508-1.069.508-2.083a2.03,2.03,0,0,0-2.037-1.99H553.1a7.982,7.982,0,0,1-7.982-7.982v-13.49A2.681,2.681,0,0,1,547.8,181.8h.083l26.76,0a2.682,2.682,0,0,1,2.682,2.685,4.538,4.538,0,0,1-.157,1.208c-.617,2.357-3.952,15.081-5.158,19.6C571.524,207.119,569.365,211.333,565.934,211.333Z" transform="translate(-545.118 -181.794)" fill="#8623d5"/>
      <g id="Grupo_158" data-name="Grupo 158" transform="translate(6.085 12.026)">
        <path id="Caminho_109" data-name="Caminho 109" d="M571.942,222.111a12.783,12.783,0,0,1-9-3.675l1.388-1.416a10.873,10.873,0,0,0,15.222,0l1.388,1.416A12.783,12.783,0,0,1,571.942,222.111Z" transform="translate(-562.943 -217.021)" fill="#fff"/>
      </g>
      <ellipse id="Elipse_66" data-name="Elipse 66" cx="1.479" cy="1.479" rx="1.479" ry="1.479" transform="translate(17.119 7.6)" fill="#fff"/>
      <ellipse id="Elipse_67" data-name="Elipse 67" cx="1.479" cy="1.479" rx="1.479" ry="1.479" transform="translate(10.091 7.636)" fill="#fff"/>
    </g>
  </g>
</svg>